# xmcd
#
# Track frame offsets:
# 150
# 48996
# 77341
# 127365
# 200007
# 260448
# 308882
#
# Disc length: 4746 seconds
#
#
# Revision: 0
# Processed by: cddbd v1.5.2PL0 Copyright (c) Steve Scherf et al.
# Submitted via: FreeRIP 2.96 
#
DISCID=5f128807
DTITLE=Donna Leon - Lasset die Kinder zu mir kommen CD7v8
DYEAR=2008
DGENRE=Hörbuch
TTITLE0=48 Lasset die Kinder zu mir kommen
TTITLE1=49 Lasset die Kinder zu mir kommen
TTITLE2=50 Lasset die Kinder zu mir kommen
TTITLE3=51 Lasset die Kinder zu mir kommen
TTITLE4=52 Lasset die Kinder zu mir kommen
TTITLE5=53 Lasset die Kinder zu mir kommen
TTITLE6=54 Lasset die Kinder zu mir kommen
EXTD=gelesen von Jochen Striebeck
EXTT0=
EXTT1=
EXTT2=
EXTT3=
EXTT4=
EXTT5=
EXTT6=
PLAYORDER=
